<svg width="32" height="32" viewBox="0 0 32 32" fill="none" xmlns="http://www.w3.org/2000/svg">
<g clip-path="url(#clip0_50_7051)">
<path d="M29.5601 14.3467L17.8267 4.14667C16.7867 3.24001 15.2401 3.24001 14.2001 4.14667L2.46672 14.3467C1.77339 14.9467 2.20005 16.0933 3.12005 16.0933H6.58672V26.0933C6.58672 27.6133 7.82672 28.8533 9.34672 28.8533H12.6667V21.12C12.6667 20.3867 13.2667 19.7867 14.0001 19.7867H18.0001C18.7334 19.7867 19.3334 20.3867 19.3334 21.12V28.8533H22.6534C24.1734 28.8533 25.4134 27.6133 25.4134 26.0933V16.0933H28.8801C29.8267 16.08 30.2534 14.9467 29.5601 14.3467Z" stroke="white" stroke-width="2" stroke-miterlimit="10" stroke-linecap="round" stroke-linejoin="round"/>
</g>
<defs>
<clipPath id="clip0_50_7051">
<rect width="29.3733" height="26.9733" fill="white" transform="translate(1.33337 2.66663)"/>
</clipPath>
</defs>
</svg>
